<?xml version="1.0" encoding="utf-8"?><svg viewBox="0 0 312 178" xmlns="http://www.w3.org/2000/svg" xmlns:xlink="http://www.w3.org/1999/xlink"><style>:root>svg{display:none}:root>svg:target{display:block}</style><svg fill="none" viewBox="0 0 9 6" id="arrow-bottom" xmlns="http://www.w3.org/2000/svg"><path d="M8 1L4.5 4.5 1 1" stroke="#fff" stroke-width="1.4"/></svg><svg fill="none" viewBox="0 0 6 10" id="arrow-left" xmlns="http://www.w3.org/2000/svg"><path d="M5 9L1 5l4-4" stroke="#fff" stroke-width=".75"/></svg><svg fill="none" viewBox="0 0 14 14" id="arrow-paginate-left" xmlns="http://www.w3.org/2000/svg"><g stroke="#080808"><path d="M11.667 7H2.333M5.833 3.5L2.333 7l3.5 3.5"/></g></svg><svg fill="none" viewBox="0 0 14 14" id="arrow-paginate-right" xmlns="http://www.w3.org/2000/svg"><g stroke="#080808"><path d="M2.333 7h9.334M8.166 3.5l3.5 3.5-3.5 3.5"/></g></svg><svg fill="none" viewBox="0 0 6 10" id="arrow-right" xmlns="http://www.w3.org/2000/svg"><path d="M1 1l4 4-4 4" stroke="#fff" stroke-width=".75"/></svg><svg fill="none" viewBox="0 0 16 16" id="close" xmlns="http://www.w3.org/2000/svg"><path fill="#fff" d="M0 15.334L15.333 0 16 .667.667 16z"/><path fill="#fff" d="M.667 0l15.332 15.333-.666.667L0 .667z"/></svg><svg fill="none" viewBox="0 0 25 24" id="copy-link-share" xmlns="http://www.w3.org/2000/svg"><circle opacity=".2" cx="12.774" cy="12" r="11.5" stroke="#080808"/><g clip-path="url(#gclip0_1_1201)" stroke="#080808" stroke-linecap="round" stroke-linejoin="round"><path d="M12.385 9.29l.774-.774a2.19 2.19 0 013.097 3.097l-.774.774m-1.549 1.548l-1.548 1.549a2.19 2.19 0 11-3.097-3.097l1.549-1.548M10.834 13.935l3.871-3.871"/></g><defs><clipPath id="gclip0_1_1201"><path fill="#fff" transform="translate(7.742 6.968)" d="M0 0h10.065v10.065H0z"/></clipPath></defs></svg><svg fill="none" viewBox="0 0 25 24" id="copy-link-white" xmlns="http://www.w3.org/2000/svg"><circle opacity=".32" cx="12.774" cy="12" r="11.5" stroke="#fff"/><g clip-path="url(#hclip0_1_163)" stroke="#fff" stroke-linecap="round" stroke-linejoin="round"><path d="M12.385 9.29l.774-.774a2.19 2.19 0 013.097 3.097l-.774.774m-1.549 1.548l-1.548 1.549a2.19 2.19 0 11-3.097-3.097l1.549-1.548M10.834 13.935l3.871-3.871"/></g><defs><clipPath id="hclip0_1_163"><path fill="#fff" transform="translate(7.742 6.968)" d="M0 0h10.065v10.065H0z"/></clipPath></defs></svg><svg fill="none" viewBox="0 0 25 24" id="facebook-share" xmlns="http://www.w3.org/2000/svg"><rect width="24.774" height="24" rx="12" fill="#3F5C95"/><path d="M14.71 7.806v1.347h-.839c-.665 0-.79.303-.79.734v.971h1.58l-.211 1.513H13.08v3.887h-1.648V12.37h-1.368v-1.513h1.368V9.74c0-1.292.838-1.998 2.053-1.998.578 0 1.08.036 1.224.064z" fill="#fff"/></svg><svg fill="none" viewBox="0 0 25 24" id="facebook-white" xmlns="http://www.w3.org/2000/svg"><path d="M14.71 7.806v1.347h-.839c-.665 0-.79.303-.79.734v.971h1.58l-.212 1.513h-1.368v3.887h-1.648V12.37h-1.368v-1.513h1.368V9.74c0-1.292.838-1.998 2.053-1.998.578 0 1.08.036 1.224.064z" fill="#fff"/><rect x=".5" y=".5" width="23.774" height="23" rx="11.5" stroke="#fff" stroke-opacity=".32"/></svg><svg fill="none" viewBox="0 0 25 24" id="in-share" xmlns="http://www.w3.org/2000/svg"><circle cx="12.774" cy="12" r="12" fill="#0077B7"/><g clip-path="url(#kclip0_1_1195)" fill="#fff"><path d="M18.578 17.035h.003v-3.976c0-1.944-.42-3.442-2.692-3.442-1.093 0-1.827.6-2.126 1.168h-.032v-.987h-2.155v7.236h2.244v-3.583c0-.943.179-1.855 1.347-1.855 1.151 0 1.169 1.076 1.169 1.916v3.523h2.242zM7.92 9.798h2.248v7.237H7.921V9.798zM9.044 6.193c-.718 0-1.301.583-1.301 1.302 0 .718.583 1.314 1.301 1.314.719 0 1.302-.596 1.302-1.314 0-.719-.584-1.302-1.302-1.302z"/></g><defs><clipPath id="kclip0_1_1195"><path fill="#fff" transform="translate(7.743 6.193)" d="M0 0h10.839v10.839H0z"/></clipPath></defs></svg><svg fill="none" viewBox="0 0 25 24" id="in-white" xmlns="http://www.w3.org/2000/svg"><circle opacity=".32" cx="12.774" cy="12" r="11.5" stroke="#fff"/><g clip-path="url(#lclip0_1_157)" fill="#fff"><path d="M18.578 17.035h.002v-3.976c0-1.944-.418-3.442-2.692-3.442-1.093 0-1.826.6-2.125 1.168h-.032v-.987h-2.156v7.236h2.245v-3.583c0-.943.179-1.855 1.347-1.855 1.151 0 1.168 1.076 1.168 1.916v3.523h2.243zM7.92 9.798h2.248v7.237H7.921V9.798zM9.044 6.193c-.719 0-1.302.583-1.302 1.302 0 .718.583 1.314 1.302 1.314.718 0 1.301-.596 1.301-1.314 0-.719-.583-1.302-1.301-1.302z"/></g><defs><clipPath id="lclip0_1_157"><path fill="#fff" transform="translate(7.742 6.193)" d="M0 0h10.839v10.839H0z"/></clipPath></defs></svg><svg fill="none" viewBox="0 0 24 24" id="input-arrow" xmlns="http://www.w3.org/2000/svg"><path d="M4 12h16M14 6l6 6-6 6" stroke="#fff"/></svg><svg fill="none" viewBox="0 0 6 6" id="list-elipse" xmlns="http://www.w3.org/2000/svg"><circle cx="3" cy="3" r="2.5" stroke="#515151"/></svg><svg fill="none" viewBox="0 0 8 10" id="location" xmlns="http://www.w3.org/2000/svg"><path d="M4 0A3.626 3.626 0 00.38 3.622c0 2.478 3.24 6.116 3.379 6.27.13.144.356.144.485 0 .138-.154 3.38-3.792 3.38-6.27A3.626 3.626 0 004 0zm0 5.444a1.824 1.824 0 01-1.822-1.822c0-1.005.818-1.823 1.823-1.823 1.004 0 1.822.818 1.822 1.823A1.824 1.824 0 014 5.444z" fill="#fff"/></svg><svg fill="none" viewBox="0 0 281 178" id="logo" xmlns="http://www.w3.org/2000/svg"><g clip-path="url(#pclip0_855_99)" fill="#fff"><path d="M148.488 17.4h6.528V107h-6.528V17.4zM88.584 107h-6.528V17.4h6.528V107zm60.672-42.624h-61.44v-5.76h61.44v5.76zM188.866 107V17.4h6.528V107h-6.528zM46.856 158v-33.6h2.448v31.392h19.344V158H46.856zm40.558 0v-33.6h2.448V158h-2.448zm40.988.24c-2.528 0-4.864-.416-7.008-1.248-2.144-.864-4.016-2.064-5.616-3.6a16.335 16.335 0 01-3.648-5.376c-.864-2.08-1.296-4.352-1.296-6.816 0-2.464.432-4.72 1.296-6.768a15.873 15.873 0 013.696-5.424 16.896 16.896 0 015.568-3.552c2.144-.864 4.496-1.296 7.056-1.296 2.432 0 4.688.384 6.768 1.152 2.08.768 3.856 1.92 5.328 3.456l-1.536 1.632c-1.472-1.44-3.088-2.464-4.848-3.072-1.728-.608-3.616-.912-5.664-.912-2.176 0-4.192.368-6.048 1.104-1.856.736-3.472 1.776-4.848 3.12a14.482 14.482 0 00-3.216 4.704c-.736 1.792-1.104 3.744-1.104 5.856 0 2.112.368 4.064 1.104 5.856a14.482 14.482 0 003.216 4.704c1.376 1.344 2.992 2.384 4.848 3.12 1.856.736 3.872 1.104 6.048 1.104 1.984 0 3.856-.304 5.616-.912 1.792-.608 3.424-1.616 4.896-3.024l1.392 1.872c-1.504 1.44-3.312 2.528-5.424 3.264-2.08.704-4.272 1.056-6.576 1.056zm9.648-4.56v-12.336h2.352v12.576l-2.352-.24zm50.517-29.28h2.448V158h-2.448v-33.6zM166.103 158h-2.448v-33.6h2.448V158zm22.752-15.984h-23.04v-2.16h23.04v2.16zM221.661 158v-31.392h-12.096V124.4h26.64v2.208h-12.096V158h-2.448z"/></g><path stroke="#fff" stroke-width="2" d="M1 1h279v176H1z"/><defs><clipPath id="pclip0_855_99"><path fill="#fff" d="M1 1h279v176H1z"/></clipPath></defs></svg><svg fill="none" viewBox="0 0 312 93" id="perfect_proportions" xmlns="http://www.w3.org/2000/svg"><path d="M.984 36h-.5v.5h.5V36zm0-33.6v-.5h-.5v.5h.5zm22.32 1.488l-.207.455.005.002.202-.457zm5.04 4.176l-.42.272.42-.272zm-5.04 17.232l.202.457.005-.002-.207-.455zm-18 1.44l-.356-.351-.84.851h1.196v-.5zm3.456-3.504h.5v-1.219l-.856.868.356.351zM8.76 36v.5h.5V36h-.5zm0-11.904l-.365.341.865.926v-1.267h-.5zM5.304 20.4v-.5H4.152l.787.841.365-.341zm0-11.664l-.365-.341-.787.841h1.152v-.5zM8.76 5.04h.5V3.773l-.865.925.365.342zM1.484 36V2.4h-1V36h1zm-.5-33.1h14.544v-1H.984v1zm14.544 0c2.954 0 5.472.487 7.569 1.443l.414-.91C21.256 2.405 18.59 1.9 15.528 1.9v1zm7.574 1.445c2.096.925 3.697 2.256 4.823 3.991l.838-.544c-1.242-1.913-3-3.366-5.257-4.361l-.404.914zm4.823 3.991c1.123 1.73 1.695 3.809 1.695 6.256h1c0-2.609-.612-4.883-1.857-6.8l-.838.544zm1.695 6.256c0 2.414-.571 4.476-1.695 6.208l.838.544c1.244-1.916 1.857-4.174 1.857-6.752h-1zM27.925 20.8c-1.127 1.736-2.73 3.084-4.828 4.041l.414.91c2.254-1.027 4.012-2.495 5.252-4.407l-.838-.544zm-4.823 4.038c-2.098.926-4.618 1.398-7.574 1.398v1c3.06 0 5.724-.488 7.978-1.483l-.404-.915zm-7.574 1.398H5.304v1h10.224v-1zm-9.868.851l3.456-3.504-.712-.702-3.456 3.504.712.702zm2.6-3.855V36h1V23.232h-1zm.5 12.268H.984v1H8.76v-1zm.365-11.745L5.67 20.058l-.73.683 3.456 3.697.73-.683zM5.304 20.9h9.792v-1H5.304v1zm9.792 0c2.459 0 4.39-.523 5.703-1.658l-.654-.756c-1.056.913-2.708 1.414-5.049 1.414v1zm5.703-1.658c1.313-1.135 1.949-2.707 1.949-4.65h-1c0 1.705-.547 2.98-1.603 3.894l.654.756zm1.949-4.65c0-1.972-.635-3.561-1.949-4.698l-.654.756c1.053.911 1.603 2.201 1.603 3.942h1zm-1.949-4.698c-1.312-1.135-3.244-1.658-5.703-1.658v1c2.341 0 3.993.501 5.049 1.414l.654-.756zm-5.703-1.658H5.304v1h9.792v-1zm-9.427.841l3.456-3.696-.73-.683-3.456 3.697.73.683zM8.26 5.04v19.056h1V5.04h-1zm33.797 29.616l-.232.443.003.002.229-.445zm-5.136-4.704l-.428.258.001.003.427-.261zm-.048-13.728l-.428-.258-.002.002.43.256zm4.944-4.704l.237.44.005-.003-.242-.437zm13.872-.096l-.238.44.008.004.23-.444zm4.848 4.608l-.431.253.001.003.43-.256zm1.728 8.16l.498.045v-.003l-.498-.042zm-.096 1.008v.5h.452l.045-.45-.497-.05zm-20.976 0h-.5v.5h.5v-.5zm0-4.368v-.5h-.5v.5h.5zm17.04 0l.205.456-.205-.956v.5zm-2.88 1.296h-.5v.773l.705-.317-.205-.456zm-.816-3.504l-.439.24.439-.24zM52.28 16.32l-.258.429.011.006.247-.435zm-6.768 0l.246.435.005-.003-.251-.432zm-2.256 2.352l.438.24.003-.005-.441-.235zm.096 8.448l-.437.244.005.008.004.007.428-.259zm2.64 2.448l-.229.445.008.003.007.004.214-.452zm7.632.192l-.184-.465-.005.002.189.463zm2.88-1.872l.367-.339-.346-.375-.368.354.347.36zm3.984 4.32l.375.33.298-.338-.306-.331-.367.339zm-4.464 3.12l.183.465.007-.002-.19-.463zm-6.192.556c-2.878 0-5.39-.563-7.548-1.673l-.457.89c2.322 1.194 4.994 1.783 8.005 1.783v-1zm-7.545-1.671c-2.134-1.114-3.776-2.62-4.941-4.522l-.853.522c1.267 2.067 3.049 3.695 5.331 4.886l.463-.886zm-4.94-4.52c-1.164-1.93-1.751-4.128-1.751-6.605h-1c0 2.643.628 5.022 1.895 7.122l.857-.516zm-1.751-6.605c0-2.513.573-4.71 1.705-6.608l-.859-.512c-1.235 2.07-1.846 4.449-1.846 7.12h1zm1.704-6.606a12.205 12.205 0 014.753-4.522l-.474-.88a13.204 13.204 0 00-5.136 4.886l.857.516zm4.758-4.525c1.998-1.106 4.265-1.665 6.814-1.665v-1c-2.7 0-5.137.593-7.299 1.79l.485.875zm6.814-1.665c2.454 0 4.643.527 6.578 1.572l.475-.88c-2.096-1.131-4.451-1.692-7.053-1.692v1zm6.587 1.576c1.962 1.012 3.509 2.482 4.645 4.417l.863-.506c-1.231-2.097-2.917-3.7-5.05-4.8l-.459.89zm4.647 4.42c1.13 1.892 1.706 4.184 1.706 6.896h1c0-2.856-.608-5.332-1.847-7.408l-.859.512zm1.706 6.896c0 .27-.015.592-.047.966l.997.084c.033-.394.05-.744.05-1.05h-1zm-.046.963c-.032.35-.064.685-.096 1.003l.995.1c.032-.322.065-.66.097-1.013l-.996-.09zm.402.553H41.193v1h20.976v-1zm-20.476.5v-4.368h-1V25.2h1zm-.5-3.868h17.04v-1h-17.04v1zm16.834-.956l-2.88 1.296.41.912 2.88-1.296-.41-.912zm-2.174 1.752c0-1.412-.287-2.666-.878-3.744l-.877.48c.497.906.755 1.988.755 3.264h1zm-.878-3.744a6.289 6.289 0 00-2.448-2.499l-.493.87a5.29 5.29 0 012.064 2.11l.877-.481zm-2.437-2.493c-1.048-.629-2.26-.935-3.617-.935v1c1.202 0 2.23.27 3.102.793l.515-.858zm-3.617-.935c-1.358 0-2.583.306-3.66.932l.503.864c.907-.526 1.954-.796 3.157-.796v-1zm-3.655.929c-1.047.593-1.865 1.449-2.45 2.552l.882.47c.502-.945 1.188-1.657 2.061-2.152l-.493-.87zm-2.448 2.547c-.592 1.08-.877 2.35-.877 3.792h1c0-1.31.258-2.408.754-3.312l-.877-.48zm-.877 3.792v1.152h1v-1.152h-1zm0 1.152c0 1.482.32 2.816.975 3.988l.873-.488c-.561-1.004-.848-2.166-.848-3.5h-1zm.984 4.003a6.996 6.996 0 002.839 2.634l.457-.89a5.998 5.998 0 01-2.44-2.262l-.856.518zm2.854 2.641c1.231.582 2.65.864 4.246.864v-1c-1.477 0-2.746-.262-3.819-.768l-.427.904zm4.246.864c1.425 0 2.691-.215 3.788-.66l-.377-.927c-.951.386-2.085.587-3.411.587v1zm3.783-.659a9.258 9.258 0 003.044-1.977l-.694-.72a8.257 8.257 0 01-2.717 1.767l.367.93zm2.33-1.998l3.983 4.32.735-.678-3.984-4.32-.735.678zm3.976 3.65c-1.13 1.282-2.552 2.28-4.28 2.988l.38.925c1.858-.762 3.411-1.845 4.65-3.252l-.75-.66zm-4.272 2.986c-1.723.676-3.723 1.021-6.01 1.021v1c2.386 0 4.514-.36 6.376-1.09l-.366-.931zM69.218 36h-.5v.5h.5V36zm0-25.824v-.5h-.5v.5h.5zm7.152 0h.5v-.5h-.5v.5zm0 7.296l-.451.215.95-.215h-.5zm-1.008-2.112l-.46-.194-.088.207.097.202.45-.215zm3.696-4.128l.24.439.006-.004-.246-.435zm6.192-1.44h.5v-.5h-.5v.5zm0 6.912l-.05.497.55.055v-.552h-.5zm-.864-.048l-.062.496.03.004h.032v-.5zm-5.808 1.728l.339.367-.34-.367zM76.706 36v.5h.5V36h-.5zm-6.988 0V10.176h-1V36h1zm-.5-25.324h7.152v-1h-7.152v1zm6.652-.5v7.296h1v-7.296h-1zm.951 7.08l-1.008-2.111-.902.43 1.008 2.112.902-.43zm-.998-1.702c.725-1.723 1.88-3.011 3.475-3.883l-.48-.878c-1.798.984-3.106 2.448-3.917 4.373l.922.388zm3.481-3.887c1.605-.908 3.58-1.375 5.946-1.375v-1c-2.497 0-4.65.493-6.438 1.505l.492.87zm5.446-1.875v6.912h1V9.792h-1zm.55 6.414a9.245 9.245 0 00-.914-.05v1c.236 0 .507.015.814.046l.1-.996zm-.852-.046a7.074 7.074 0 00-.878-.052v1c.27 0 .52.015.754.044l.124-.992zm-.878-.052c-2.15 0-3.943.625-5.332 1.909l.68.734c1.171-1.084 2.706-1.643 4.652-1.643v-1zm-5.331 1.909c-1.39 1.282-2.033 3.251-2.033 5.791h1c0-2.388.605-4.035 1.711-5.057l-.678-.734zm-2.033 5.791V36h1V23.808h-1zm.5 11.692h-7.488v1h7.488v-1zm16.016.5h-.5v.5h.5V36zm2.592-33.36l.353.354.004-.004-.357-.35zM105.826.336l-.11.488h.003l.107-.488zm2.592 1.056l.47.17.132-.364-.321-.22-.281.414zm-1.968 5.424l-.285.411.534.37.221-.61-.47-.171zm-5.568.048l-.363-.344.363.344zm-.864 5.184h-.5v.03l.5-.03zm.192 3.216h.5v-.015l-.001-.015-.499.03zm0 20.736v.5h.5V36h-.5zM88.738 16.512h-.5v.5h.5v-.5zm0-5.76v-.5h-.5v.5h.5zm17.904 0h.5v-.5h-.5v.5zm0 5.76v.5h.5v-.5h-.5zM93.222 36V9.6h-1V36h1zm0-26.4c0-2.807.829-4.99 2.445-6.606l-.707-.708c-1.84 1.84-2.738 4.297-2.738 7.314h1zm2.449-6.61C97.279 1.352 99.598.5 102.706.5v-1c-3.293 0-5.901.908-7.749 2.79l.714.7zM102.706.5c1.053 0 2.056.108 3.01.324l.22-.976a14.632 14.632 0 00-3.23-.348v1zm3.013.324c.975.214 1.777.544 2.417.981l.563-.826c-.767-.523-1.694-.897-2.766-1.131l-.214.976zm2.229.397l-1.968 5.424.94.342 1.968-5.424-.94-.342zm-1.214 5.184a5.602 5.602 0 00-1.527-.738l-.298.954c.466.146.884.349 1.256.606l.569-.822zm-1.527-.738a5.94 5.94 0 00-1.781-.263v1c.529 0 1.022.073 1.483.217l.298-.954zm-1.781-.263c-1.191 0-2.183.354-2.907 1.116l.725.688c.493-.518 1.197-.804 2.182-.804v-1zm-2.907 1.116c-.699.738-1.001 1.814-1.001 3.128h1c0-1.182.274-1.962.727-2.44l-.726-.688zm-1.001 3.128v2.4h1v-2.4h-1zm0 2.43l.193 3.216.998-.06-.192-3.216-.998.06zm.192 3.186V36h1V15.264h-1zm.5 20.236h-7.488v1h7.488v-1zM89.238 16.512v-5.76h-1v5.76h1zm-.5-5.26h17.904v-1H88.738v1zm17.404-.5v5.76h1v-5.76h-1zm.5 5.26H88.738v1h17.904v-1zm10.362 18.644l-.231.443.002.002.229-.445zm-5.136-4.704l-.428.258.002.003.426-.261zm-.048-13.728l-.428-.258-.001.002.429.256zm4.944-4.704l.237.44.005-.003-.242-.437zm13.872-.096l-.237.44.008.004.229-.444zm4.848 4.608l-.431.253.002.003.429-.256zm1.728 8.16l.498.045v-.003l-.498-.042zm-.096 1.008v.5h.453l.045-.45-.498-.05zm-20.976 0h-.5v.5h.5v-.5zm0-4.368v-.5h-.5v.5h.5zm17.04 0l.205.456-.205-.956v.5zm-2.88 1.296h-.5v.773l.705-.317-.205-.456zm-.816-3.504l-.438.24.438-.24zm-2.256-2.304l-.257.429.011.006.246-.435zm-6.768 0l.247.435.004-.003-.251-.432zm-2.256 2.352l.439.24.003-.005-.442-.235zm.096 8.448l-.436.244.004.008.005.007.427-.259zm2.64 2.448l-.229.445.008.003.008.004.213-.452zm7.632.192l-.183-.465-.005.002.188.463zm2.88-1.872l.368-.339-.347-.375-.368.354.347.36zm3.984 4.32l.375.33.298-.338-.305-.331-.368.339zm-4.464 3.12l.183.465.007-.002-.19-.463zm-6.192.556c-2.878 0-5.389-.563-7.547-1.673l-.458.89c2.322 1.194 4.995 1.783 8.005 1.783v-1zm-7.545-1.671c-2.133-1.114-3.775-2.62-4.941-4.522l-.852.522c1.267 2.067 3.048 3.695 5.331 4.886l.462-.886zm-4.939-4.52c-1.165-1.93-1.752-4.128-1.752-6.605h-1c0 2.643.629 5.022 1.896 7.122l.856-.516zm-1.752-6.605c0-2.513.573-4.71 1.705-6.608l-.858-.512c-1.236 2.07-1.847 4.449-1.847 7.12h1zm1.704-6.606a12.212 12.212 0 014.753-4.522l-.474-.88a13.206 13.206 0 00-5.135 4.886l.856.516zm4.758-4.525c1.999-1.106 4.266-1.665 6.814-1.665v-1c-2.7 0-5.136.593-7.298 1.79l.484.875zm6.814-1.665c2.454 0 4.643.527 6.579 1.572l.475-.88c-2.097-1.131-4.452-1.692-7.054-1.692v1zm6.587 1.576c1.963 1.012 3.509 2.482 4.646 4.417l.862-.506c-1.231-2.097-2.916-3.7-5.05-4.8l-.458.89zm4.648 4.42c1.129 1.892 1.705 4.184 1.705 6.896h1c0-2.856-.608-5.332-1.846-7.408l-.859.512zm1.705 6.896c0 .27-.015.592-.046.966l.996.084c.033-.394.05-.744.05-1.05h-1zm-.046.963c-.032.35-.064.685-.095 1.003l.995.1c.032-.322.064-.66.096-1.013l-.996-.09zm.402.553H116.14v1h20.976v-1zm-20.476.5v-4.368h-1V25.2h1zm-.5-3.868h17.04v-1h-17.04v1zm16.835-.956l-2.88 1.296.41.912 2.88-1.296-.41-.912zm-2.175 1.752c0-1.412-.286-2.666-.877-3.744l-.877.48c.496.906.754 1.988.754 3.264h1zm-.877-3.744a6.293 6.293 0 00-2.448-2.499l-.493.87a5.294 5.294 0 012.064 2.11l.877-.481zm-2.438-2.493c-1.048-.629-2.259-.935-3.617-.935v1c1.203 0 2.231.27 3.103.793l.514-.858zm-3.617-.935c-1.358 0-2.582.306-3.659.932l.502.864c.907-.526 1.955-.796 3.157-.796v-1zm-3.654.929c-1.047.593-1.865 1.449-2.451 2.552l.883.47c.501-.945 1.188-1.657 2.061-2.152l-.493-.87zm-2.448 2.547c-.593 1.08-.878 2.35-.878 3.792h1c0-1.31.259-2.408.755-3.312l-.877-.48zm-.878 3.792v1.152h1v-1.152h-1zm0 1.152c0 1.482.321 2.816.976 3.988l.873-.488c-.562-1.004-.849-2.166-.849-3.5h-1zm.985 4.003a6.99 6.99 0 002.838 2.634l.458-.89a5.993 5.993 0 01-2.441-2.262l-.855.518zm2.854 2.641c1.231.582 2.65.864 4.245.864v-1c-1.477 0-2.745-.262-3.818-.768l-.427.904zm4.245.864c1.425 0 2.692-.215 3.788-.66l-.376-.927c-.952.386-2.085.587-3.412.587v1zm3.783-.659a9.247 9.247 0 003.044-1.977l-.694-.72a8.246 8.246 0 01-2.716 1.767l.366.93zm2.33-1.998l3.984 4.32.735-.678-3.984-4.32-.735.678zm3.976 3.65c-1.129 1.282-2.552 2.28-4.279 2.988l.38.925c1.857-.762 3.41-1.845 4.649-3.252l-.75-.66zm-4.272 2.986c-1.722.676-3.722 1.021-6.009 1.021v1c2.386 0 4.514-.36 6.375-1.09l-.366-.931zm18.416-.159l-.234.442.006.003.228-.445zm-5.136-4.752l-.428.258.003.005.425-.263zm0-13.728l-.425-.263-.001.002.426.261zm5.136-4.704l.229.445.005-.003-.234-.442zm14.544 0l-.248.434.006.003.242-.437zm4.464 4.848l.237.44.412-.221-.193-.426-.456.207zm-5.808 3.12l-.437.242.239.432.435-.233-.237-.441zm-2.544-2.688l-.251.432.006.004.245-.436zm-6.72 0l.246.436-.246-.436zm-2.448 2.448l-.433-.25-.006.01.439.24zm0 7.68l-.439.24.006.01.433-.25zm2.448 2.448l.246-.436-.246.436zm6.72.048l.241.438.005-.002-.246-.436zm2.544-2.736l.24-.439-.441-.24-.239.442.44.237zm5.808 3.168l.454.21.196-.425-.41-.224-.24.439zm-4.464 4.848l.243.437.005-.003-.248-.434zm-7.104 1.18c-2.715 0-5.115-.546-7.211-1.625l-.457.89c2.256 1.16 4.816 1.735 7.668 1.735v-1zm-7.206-1.622c-2.1-1.112-3.745-2.636-4.944-4.573l-.851.526c1.297 2.095 3.076 3.739 5.327 4.93l.468-.883zm-4.941-4.568c-1.165-1.932-1.753-4.129-1.753-6.606h-1c0 2.643.629 5.022 1.896 7.122l.857-.516zm-1.753-6.606c0-2.51.588-4.706 1.751-6.603l-.853-.522c-1.269 2.071-1.898 4.452-1.898 7.125h1zm1.75-6.6c1.198-1.937 2.841-3.444 4.939-4.523l-.457-.89c-2.254 1.16-4.035 2.79-5.333 4.886l.851.526zm4.944-4.526c2.095-1.11 4.493-1.67 7.206-1.67v-1c-2.854 0-5.417.591-7.674 1.786l.468.884zm7.206-1.67c2.648 0 4.928.56 6.856 1.662l.496-.868c-2.103-1.202-4.56-1.794-7.352-1.794v1zm6.862 1.665c1.921 1.068 3.335 2.603 4.251 4.618l.911-.414c-1.004-2.209-2.567-3.906-4.677-5.078l-.485.874zm4.47 3.97l-5.808 3.12.473.881 5.808-3.12-.473-.88zm-5.134 3.32c-.709-1.283-1.618-2.253-2.736-2.883l-.491.872c.93.523 1.716 1.344 2.352 2.494l.875-.484zm-2.731-2.88a6.88 6.88 0 00-3.515-.931v1c1.099 0 2.1.266 3.013.796l.502-.864zm-3.515-.931c-1.358 0-2.595.306-3.701.928l.491.872c.942-.53 2.008-.8 3.21-.8v-1zm-3.701.928c-1.105.622-1.985 1.504-2.636 2.634l.867.5c.565-.982 1.317-1.732 2.26-2.262l-.491-.872zm-2.642 2.645c-.624 1.145-.925 2.512-.925 4.079h1c0-1.44.276-2.634.803-3.6l-.878-.48zm-.925 4.079c0 1.567.301 2.934.925 4.08l.878-.48c-.527-.966-.803-2.16-.803-3.6h-1zm.931 4.09c.651 1.13 1.531 2.012 2.636 2.634l.491-.872c-.943-.53-1.695-1.28-2.26-2.262l-.867.5zm2.636 2.634c1.106.622 2.343.928 3.701.928v-1c-1.202 0-2.268-.27-3.21-.8l-.491.872zm3.701.928c1.264 0 2.436-.291 3.505-.878l-.481-.876c-.915.501-1.92.754-3.024.754v1zm3.51-.88c1.122-.631 2.031-1.62 2.739-2.935l-.881-.474c-.636 1.182-1.423 2.016-2.349 2.537l.491.872zm2.059-2.733l5.808 3.168.479-.878-5.808-3.168-.479.878zm5.593 2.52c-.915 1.984-2.331 3.522-4.258 4.623l.496.868c2.105-1.203 3.666-2.897 4.67-5.072l-.908-.42zm-4.252 4.62c-1.93 1.072-4.211 1.617-6.862 1.617v1c2.79 0 5.245-.575 7.347-1.743l-.485-.874zm14.769-.187l-.34.367.004.004.336-.371zm-2.544-29.616v-.5h-.5v.5h.5zm7.488 0h.5v-.5h-.5v.5zm.864 25.104l-.363.344.009.01.354-.354zm5.376-.096l.467-.178-.24-.628-.532.41.305.396zm2.016 5.28l.289.408.316-.224-.138-.362-.467.178zM188.692 36l.118.486.01-.003-.128-.483zm-16.944-19.488h-.5v.5h.5v-.5zm0-5.76v-.5h-.5v.5h.5zm17.904 0h.5v-.5h-.5v.5zm0 5.76v.5h.5v-.5h-.5zm-4.272 19.372c-2.958 0-5.191-.746-6.769-2.175l-.671.742c1.815 1.643 4.317 2.433 7.44 2.433v-1zm-6.765-2.171c-1.563-1.445-2.383-3.612-2.383-6.593h-1c0 3.163.875 5.636 2.704 7.327l.679-.734zm-2.383-6.593V4.464h-1V27.12h1zm-.5-22.156h7.488v-1h-7.488v1zm6.988-.5v22.56h1V4.464h-1zm0 22.56c0 1.176.313 2.162 1.001 2.888l.726-.688c-.464-.49-.727-1.2-.727-2.2h-1zm1.01 2.898c.69.689 1.612 1.01 2.706 1.01v-1c-.89 0-1.536-.255-1.999-.718l-.707.708zm2.706 1.01c1.279 0 2.398-.348 3.329-1.064l-.61-.792c-.734.564-1.631.856-2.719.856v1zm2.557-1.282l2.016 5.28.934-.356-2.016-5.28-.934.356zm2.194 4.694c-.711.503-1.582.897-2.623 1.173l.256.966c1.134-.3 2.12-.738 2.945-1.323l-.578-.816zm-2.613 1.17c-1.015.246-2.08.37-3.194.37v1c1.189 0 2.333-.132 3.43-.398l-.236-.972zm-16.326-19.002v-5.76h-1v5.76h1zm-.5-5.26h17.904v-1h-17.904v1zm17.404-.5v5.76h1v-5.76h-1zm.5 5.26h-17.904v1h17.904v-1zM10.008 81.944l.254-.431-.254.431zm-3.84-4.368l-.456.206.004.009.452-.215zM6.12 62.6l.457.202-.457-.202zm3.744-4.368l-.254-.431.254.431zm12.384.24l-.252.432.009.005.243-.437zm4.608 4.608l-.435.246.003.005.432-.251zm0 14.064l-.432-.251-.003.005.435.246zm-4.608 4.608l-.243-.437-.003.002.246.435zM.456 92.312h-.5v.5h.5v-.5zm0-35.136v-.5h-.5v.5h.5zm7.152 0h.5v-.5h-.5v.5zm0 5.28l.5.01v-.01h-.5zm-.144 7.68l-.5-.01v.021l.001.02.499-.031zm.48 7.632h.5v-.016l-.001-.015-.499.031zm0 14.544v.5h.5v-.5h-.5zm9.792-15.936l-.251-.432-.006.003.257.429zm2.352-2.448l-.437-.244-.002.005.439.239zm0-7.68l-.44.24.007.01.433-.25zM17.736 63.8l-.257.429.006.003.251-.432zm-6.672 0l.251.432-.251-.432zm-2.352 2.448l.439.24-.439-.24zm0 7.68l-.442.234.003.005.439-.239zm2.352 2.448l.251-.432-.251.432zm4.656 6.508c-2.1 0-3.914-.463-5.459-1.371l-.506.862c1.72 1.012 3.713 1.509 5.965 1.509v-1zm-5.459-1.371c-1.534-.902-2.75-2.277-3.641-4.152l-.904.43c.965 2.029 2.309 3.566 4.038 4.584l.508-.862zM6.624 77.37c-.858-1.9-1.3-4.32-1.3-7.282h-1c0 3.054.454 5.625 1.388 7.694l.912-.412zm-1.3-7.282c0-2.998.427-5.418 1.253-7.286l-.914-.404c-.902 2.036-1.339 4.608-1.339 7.69h1zm1.253-7.286c.828-1.869 2.01-3.239 3.54-4.139l-.507-.862c-1.733 1.02-3.047 2.562-3.947 4.597l.914.404zm3.54-4.139c1.542-.907 3.402-1.371 5.603-1.371v-1c-2.343 0-4.387.496-6.11 1.509l.508.862zm5.603-1.371c2.352 0 4.44.54 6.276 1.612l.504-.864c-2.004-1.169-4.268-1.748-6.78-1.748v1zm6.285 1.617c1.87 1.042 3.34 2.511 4.416 4.417l.87-.492c-1.164-2.062-2.766-3.665-4.8-4.799l-.486.874zm4.419 4.422c1.1 1.896 1.66 4.142 1.66 6.757h1c0-2.76-.592-5.187-1.796-7.26l-.864.503zm1.66 6.757c0 2.648-.56 4.91-1.66 6.805l.864.502c1.204-2.073 1.796-4.515 1.796-7.307h-1zm-1.663 6.81c-1.076 1.906-2.546 3.375-4.416 4.417l.486.874c2.034-1.134 3.636-2.737 4.8-4.8l-.87-.49zM22 81.317c-1.837 1.041-3.926 1.567-6.281 1.567v1c2.51 0 4.772-.562 6.774-1.697l-.492-.87zM.956 92.312V57.176h-1v35.136h1zm-.5-34.636h7.152v-1H.456v1zm6.652-.5v5.28h1v-5.28h-1zm0 5.27l-.144 7.68 1 .02.144-7.68-1-.02zm-.143 7.721l.48 7.632.998-.062-.48-7.632-.998.062zm.479 7.601v14.544h1V77.768h-1zm.5 14.044H.456v1h7.488v-1zm6.48-14.072c1.328 0 2.523-.307 3.57-.935l-.515-.858c-.874.524-1.887.793-3.055.793v1zm3.563-.932c1.075-.624 1.922-1.508 2.54-2.64l-.878-.48c-.534.98-1.255 1.728-2.164 2.256l.502.864zm2.538-2.636c.656-1.175.975-2.542.975-4.084h-1c0 1.402-.29 2.595-.849 3.596l.873.488zm.975-4.084c0-1.571-.318-2.942-.979-4.09l-.866.5c.555.964.845 2.153.845 3.59h1zm-.973-4.08c-.618-1.132-1.465-2.016-2.54-2.64l-.502.864c.909.528 1.63 1.276 2.164 2.255l.878-.478zm-2.534-2.637c-1.046-.628-2.241-.935-3.569-.935v1c1.168 0 2.181.269 3.055.793l.514-.858zm-3.569-.935c-1.328 0-2.536.307-3.611.932l.502.864c.91-.527 1.941-.796 3.109-.796v-1zm-3.611.932c-1.075.624-1.922 1.508-2.54 2.64l.878.48c.534-.98 1.255-1.728 2.164-2.256l-.502-.864zm-2.54 2.64c-.625 1.146-.925 2.513-.925 4.08h1c0-1.44.276-2.634.803-3.6l-.878-.48zm-.925 4.08c0 1.538.301 2.901.922 4.074l.884-.468c-.531-1.003-.806-2.2-.806-3.606h-1zm.925 4.08c.618 1.132 1.465 2.016 2.54 2.64l.502-.864c-.909-.528-1.63-1.276-2.164-2.255l-.878.478zm2.54 2.64c1.075.624 2.283.932 3.611.932v-1c-1.168 0-2.2-.268-3.109-.796l-.502.864zM35.517 83h-.5v.5h.5V83zm0-25.824v-.5h-.5v.5h.5zm7.152 0h.5v-.5h-.5v.5zm0 7.296l-.452.215.952-.215h-.5zM41.66 62.36l-.461-.194-.087.207.096.202.452-.215zm3.696-4.128l.24.439.006-.004-.246-.435zm6.192-1.44h.5v-.5h-.5v.5zm0 6.912l-.05.497.55.056v-.553h-.5zm-.864-.048l-.062.496.03.004h.032v-.5zm-5.808 1.728l.339.367-.34-.367zM43.005 83v.5h.5V83h-.5zm-6.988 0V57.176h-1V83h1zm-.5-25.324h7.152v-1h-7.152v1zm6.652-.5v7.296h1v-7.296h-1zm.95 7.08l-1.007-2.111-.903.43 1.008 2.112.903-.43zm-.998-1.702c.726-1.723 1.881-3.011 3.476-3.883l-.48-.878c-1.798.984-3.106 2.447-3.917 4.373l.921.388zm3.482-3.887c1.604-.908 3.579-1.375 5.946-1.375v-1c-2.498 0-4.651.493-6.439 1.505l.493.87zm5.446-1.875v6.912h1v-6.912h-1zm.55 6.414a9.249 9.249 0 00-.914-.05v1c.235 0 .506.015.814.045l.1-.994zm-.852-.046a7.076 7.076 0 00-.878-.052v1c.27 0 .52.015.754.044l.124-.992zm-.878-.052c-2.15 0-3.944.625-5.332 1.909l.68.734c1.17-1.084 2.706-1.643 4.652-1.643v-1zm-5.331 1.909c-1.39 1.282-2.033 3.251-2.033 5.791h1c0-2.388.604-4.035 1.71-5.057l-.678-.734zm-2.033 5.791V83h1V70.808h-1zm.5 11.692h-7.488v1h7.488v-1zm19.672-.844l-.239.439.003.002.236-.441zm-5.04-4.704l-.428.258.005.008.424-.266zm0-13.728l-.425-.263v.002l.425.261zm5.04-4.704l.235.442.002-.002-.236-.44zm14.64 0l-.236.44.005.003.231-.443zm5.04 18.432l.427.261.002-.003-.428-.258zm-5.04 4.704l-.236-.44.236.44zm-3.935-5.28l.25.432-.25-.432zm2.352-2.448l.439.24.002-.006-.441-.234zm0-7.68l-.44.24.44-.24zM73.382 63.8l-.252.432.252-.432zm-6.72 0l.25.432-.25-.432zm-2.4 2.448l-.434-.25-.005.01.438.24zm0 7.68l-.442.234.004.008.004.007.433-.249zm2.4 2.448l.25-.432-.25.432zm3.36 6.508c-2.68 0-5.046-.56-7.108-1.668l-.473.88c2.226 1.196 4.757 1.788 7.58 1.788v-1zm-7.105-1.667c-2.04-1.112-3.655-2.621-4.856-4.531l-.847.532c1.295 2.058 3.04 3.685 5.224 4.877l.479-.878zm-4.851-4.523c-1.165-1.931-1.753-4.129-1.753-6.606h-1c0 2.643.63 5.022 1.896 7.122l.857-.516zm-1.753-6.606c0-2.51.588-4.706 1.75-6.603l-.852-.522c-1.27 2.071-1.898 4.452-1.898 7.125h1zm1.75-6.6a12.464 12.464 0 014.849-4.526l-.469-.884a13.463 13.463 0 00-5.23 4.883l.85.526zm4.851-4.528c2.062-1.108 4.427-1.668 7.108-1.668v-1c-2.824 0-5.355.592-7.581 1.788l.473.88zm7.108-1.668c2.647 0 4.996.56 7.059 1.668l.473-.88c-2.225-1.196-4.74-1.788-7.532-1.788v1zm7.064 1.671c2.067 1.08 3.678 2.57 4.845 4.474l.853-.522c-1.265-2.065-3.014-3.678-5.235-4.838l-.463.886zm4.845 4.474c1.162 1.896 1.75 4.107 1.75 6.651h1c0-2.704-.627-5.101-1.897-7.173l-.853.522zm1.75 6.651c0 2.477-.587 4.675-1.752 6.606l.857.516c1.267-2.1 1.895-4.48 1.895-7.122h-1zm-1.75 6.603c-1.167 1.905-2.78 3.412-4.85 4.525l.473.88c2.218-1.191 3.965-2.82 5.23-4.883l-.853-.522zm-4.85 4.525c-2.063 1.108-4.412 1.668-7.06 1.668v1c2.793 0 5.308-.592 7.533-1.787l-.473-.881zm-7.06-3.476c1.329 0 2.537-.307 3.612-.932l-.503-.864c-.909.528-1.94.796-3.108.796v1zm3.612-.932c1.075-.624 1.922-1.508 2.54-2.64l-.878-.48c-.535.98-1.256 1.728-2.165 2.256l.503.864zm2.542-2.646c.621-1.173.922-2.536.922-4.074h-1c0 1.406-.274 2.603-.805 3.606l.883.468zm.922-4.074c0-1.567-.3-2.934-.924-4.08l-.878.48c.527.966.802 2.16.802 3.6h1zm-.924-4.08c-.618-1.132-1.465-2.016-2.54-2.64l-.503.864c.91.528 1.63 1.276 2.165 2.255l.877-.478zm-2.54-2.64c-1.075-.625-2.283-.932-3.611-.932v1c1.167 0 2.2.269 3.108.796l.503-.864zm-3.611-.932c-1.329 0-2.537.307-3.612.932l.503.864c.909-.527 1.94-.796 3.109-.796v-1zm-3.612.932c-1.072.622-1.933 1.503-2.582 2.63l.867.5c.567-.986 1.306-1.736 2.218-2.266l-.503-.864zm-2.587 2.64c-.625 1.146-.925 2.513-.925 4.08h1c0-1.44.275-2.634.803-3.6l-.878-.48zm-.925 4.08c0 1.538.3 2.901.922 4.074l.883-.468c-.53-1.003-.806-2.2-.806-3.606h-1zm.93 4.09c.65 1.127 1.51 2.008 2.582 2.63l.503-.864c-.912-.53-1.651-1.28-2.218-2.266l-.867.5zm2.582 2.63c1.075.624 2.283.932 3.612.932v-1c-1.168 0-2.2-.268-3.11-.796l-.502.864zm34.249 5.136l.253-.431-.253.431zm-3.84-4.368l-.456.206.004.009.452-.215zM96.77 62.6l.457.202-.457-.202zm3.744-4.368l-.254-.431.254.431zm12.384.24l-.252.432.008.005.244-.437zm4.608 4.608l-.436.246.003.005.433-.251zm0 14.064l-.433-.251-.003.005.436.246zm-4.608 4.608l-.244-.437-.003.002.247.435zm-21.792 10.56h-.5v.5h.5v-.5zm0-35.136v-.5h-.5v.5h.5zm7.152 0h.5v-.5h-.5v.5zm0 5.28l.5.01v-.01h-.5zm-.144 7.68l-.5-.01v.041l.5-.031zm.48 7.632h.5v-.016l-.001-.015-.5.031zm0 14.544v.5h.5v-.5h-.5zm9.792-15.936l-.251-.432-.007.003.258.429zm2.352-2.448l-.437-.244-.002.005.439.239zm0-7.68l-.439.24.005.01.434-.25zm-2.352-2.448l-.258.429.007.003.251-.432zm-6.672 0l.251.432-.251-.432zm-2.352 2.448l.439.24-.44-.24zm0 7.68l-.442.234.003.005.439-.239zm2.352 2.448l.251-.432-.251.432zm4.656 6.508c-2.101 0-3.915-.463-5.459-1.371l-.507.862c1.72 1.012 3.714 1.509 5.966 1.509v-1zm-5.459-1.371c-1.534-.902-2.75-2.277-3.642-4.152l-.903.43c.965 2.029 2.308 3.566 4.038 4.584l.507-.862zm-3.638-4.143c-.858-1.9-1.3-4.32-1.3-7.282h-1c0 3.054.455 5.625 1.389 7.694l.911-.412zm-1.3-7.282c0-2.998.427-5.418 1.254-7.286l-.915-.404c-.901 2.036-1.338 4.608-1.338 7.69h1zm1.254-7.286c.827-1.869 2.01-3.239 3.54-4.139l-.507-.862c-1.733 1.02-3.047 2.562-3.948 4.597l.915.404zm3.54-4.139c1.541-.907 3.402-1.371 5.603-1.371v-1c-2.344 0-4.387.496-6.11 1.509l.507.862zm5.603-1.371c2.352 0 4.439.54 6.276 1.612l.504-.864c-2.004-1.169-4.268-1.748-6.78-1.748v1zm6.284 1.617c1.87 1.042 3.341 2.511 4.416 4.417l.871-.492c-1.164-2.062-2.766-3.665-4.8-4.799l-.487.874zm4.419 4.422c1.101 1.896 1.661 4.142 1.661 6.757h1c0-2.76-.593-5.187-1.796-7.26l-.865.503zm1.661 6.757c0 2.648-.561 4.91-1.661 6.805l.865.502c1.204-2.073 1.796-4.515 1.796-7.307h-1zm-1.664 6.81c-1.075 1.906-2.546 3.375-4.416 4.417l.487.874c2.034-1.134 3.636-2.737 4.8-4.8l-.871-.49zm-4.419 4.419c-1.837 1.041-3.927 1.567-6.281 1.567v1c2.509 0 4.771-.562 6.774-1.697l-.493-.87zM91.607 92.312V57.176h-1v35.136h1zm-.5-34.636h7.152v-1h-7.152v1zm6.652-.5v5.28h1v-5.28h-1zm0 5.27l-.144 7.68 1 .02.144-7.68-1-.02zm-.143 7.721l.48 7.632.998-.062-.48-7.632-.998.062zm.479 7.601v14.544h1V77.768h-1zm.5 14.044h-7.488v1h7.488v-1zm6.48-14.072c1.328 0 2.523-.307 3.569-.935l-.515-.858c-.873.524-1.886.793-3.054.793v1zm3.563-.932c1.075-.624 1.922-1.508 2.54-2.64l-.878-.48c-.535.98-1.255 1.728-2.164 2.256l.502.864zm2.537-2.636c.657-1.175.976-2.542.976-4.084h-1c0 1.402-.289 2.595-.849 3.596l.873.488zm.976-4.084c0-1.571-.318-2.942-.979-4.09l-.867.5c.555.964.846 2.153.846 3.59h1zm-.973-4.08c-.618-1.132-1.465-2.016-2.54-2.64l-.502.864c.909.528 1.629 1.276 2.164 2.255l.878-.478zm-2.534-2.637c-1.046-.628-2.241-.935-3.569-.935v1c1.168 0 2.181.269 3.054.793l.515-.858zm-3.569-.935c-1.329 0-2.537.307-3.611.932l.502.864c.909-.527 1.941-.796 3.109-.796v-1zm-3.611.932c-1.075.624-1.923 1.508-2.54 2.64l.878.48c.534-.98 1.255-1.728 2.164-2.256l-.502-.864zm-2.54 2.64c-.625 1.146-.925 2.513-.925 4.08h1c0-1.44.276-2.634.803-3.6l-.878-.48zm-.925 4.08c0 1.538.3 2.901.922 4.074l.883-.468c-.53-1.003-.805-2.2-.805-3.606h-1zm.925 4.08c.617 1.132 1.465 2.016 2.54 2.64l.502-.864c-.909-.528-1.63-1.276-2.164-2.255l-.878.478zm2.54 2.64c1.074.624 2.282.932 3.611.932v-1c-1.168 0-2.2-.268-3.109-.796l-.502.864zm29.647 4.848l-.239.439.003.002.236-.441zm-5.04-4.704l-.428.258.005.008.423-.266zm0-13.728l-.425-.263-.001.002.426.261zm5.04-4.704l.235.442.002-.002-.237-.44zm14.64 0l-.236.44.005.003.231-.443zm5.04 18.432l.427.261.001-.003-.428-.258zm-5.04 4.704l-.236-.44.236.44zm-3.936-5.28l.251.432-.251-.432zm2.352-2.448l.439.24.003-.006-.442-.234zm0-7.68l-.439.24.439-.24zm-2.352-2.448l-.251.432.251-.432zm-6.72 0l.251.432-.251-.432zm-2.4 2.448l-.433-.25-.006.01.439.24zm0 7.68l-.442.234.005.008.004.007.433-.249zm2.4 2.448l.251-.432-.251.432zm3.36 6.508c-2.68 0-5.045-.56-7.107-1.668l-.473.88c2.225 1.196 4.757 1.788 7.58 1.788v-1zm-7.104-1.667c-2.039-1.112-3.655-2.621-4.857-4.531l-.846.532c1.295 2.058 3.039 3.685 5.224 4.877l.479-.878zm-4.852-4.523c-1.165-1.931-1.752-4.129-1.752-6.606h-1c0 2.643.629 5.022 1.896 7.122l.856-.516zm-1.752-6.606c0-2.51.588-4.706 1.751-6.603l-.853-.522c-1.27 2.071-1.898 4.452-1.898 7.125h1zm1.749-6.6a12.462 12.462 0 014.85-4.526l-.469-.884a13.46 13.46 0 00-5.231 4.883l.85.526zm4.852-4.528c2.062-1.108 4.427-1.668 7.107-1.668v-1c-2.823 0-5.355.592-7.58 1.788l.473.88zm7.107-1.668c2.648 0 4.997.56 7.06 1.668l.473-.88c-2.225-1.196-4.74-1.788-7.533-1.788v1zm7.065 1.671c2.067 1.08 3.678 2.57 4.845 4.474l.853-.522c-1.266-2.065-3.014-3.678-5.235-4.838l-.463.886zm4.845 4.474c1.162 1.896 1.75 4.107 1.75 6.651h1c0-2.704-.627-5.101-1.897-7.173l-.853.522zm1.75 6.651c0 2.477-.587 4.674-1.752 6.606l.856.516c1.268-2.1 1.896-4.48 1.896-7.122h-1zm-1.75 6.603c-1.168 1.905-2.781 3.412-4.85 4.525l.473.88c2.218-1.191 3.965-2.82 5.23-4.883l-.853-.522zm-4.85 4.525c-2.063 1.108-4.412 1.668-7.06 1.668v1c2.793 0 5.308-.592 7.533-1.787l-.473-.881zm-7.06-3.476c1.328 0 2.536-.307 3.611-.932l-.502-.864c-.909.528-1.941.796-3.109.796v1zm3.611-.932c1.075-.624 1.923-1.508 2.54-2.64l-.878-.48c-.534.98-1.255 1.728-2.164 2.256l.502.864zm2.543-2.646c.621-1.173.922-2.536.922-4.074h-1c0 1.406-.275 2.603-.806 3.606l.884.468zm.922-4.074c0-1.567-.3-2.934-.925-4.08l-.878.48c.527.966.803 2.16.803 3.6h1zm-.925-4.08c-.617-1.132-1.465-2.016-2.54-2.64l-.502.864c.909.528 1.63 1.276 2.164 2.255l.878-.478zm-2.54-2.64c-1.075-.625-2.283-.932-3.611-.932v1c1.168 0 2.2.269 3.109.796l.502-.864zm-3.611-.932c-1.328 0-2.536.307-3.611.932l.502.864c.909-.527 1.941-.796 3.109-.796v-1zm-3.611.932c-1.072.622-1.933 1.503-2.582 2.63l.867.5c.567-.986 1.306-1.736 2.217-2.266l-.502-.864zm-2.588 2.64c-.625 1.146-.925 2.513-.925 4.08h1c0-1.44.276-2.634.803-3.6l-.878-.48zm-.925 4.08c0 1.538.301 2.901.922 4.074l.884-.468c-.531-1.003-.806-2.2-.806-3.606h-1zm.931 4.09c.649 1.127 1.51 2.008 2.582 2.63l.502-.864c-.911-.53-1.65-1.28-2.217-2.266l-.867.5zm2.582 2.63c1.075.624 2.283.932 3.611.932v-1c-1.168 0-2.2-.268-3.109-.796l-.502.864zM159.54 83h-.5v.5h.5V83zm0-25.824v-.5h-.5v.5h.5zm7.152 0h.5v-.5h-.5v.5zm0 7.296l-.451.215.951-.215h-.5zm-1.008-2.112l-.46-.194-.088.207.097.202.451-.215zm3.696-4.128l.24.439.007-.004-.247-.435zm6.192-1.44h.5v-.5h-.5v.5zm0 6.912l-.049.497.549.056v-.553h-.5zm-.864-.048l-.062.496.031.004h.031v-.5zm-5.808 1.728l.34.367-.34-.367zM167.028 83v.5h.5V83h-.5zm-6.988 0V57.176h-1V83h1zm-.5-25.324h7.152v-1h-7.152v1zm6.652-.5v7.296h1v-7.296h-1zm.952 7.08l-1.008-2.111-.903.43 1.008 2.112.903-.43zm-.999-1.702c.725-1.723 1.881-3.011 3.475-3.883l-.48-.878c-1.797.984-3.106 2.447-3.916 4.373l.921.388zm3.482-3.887c1.604-.908 3.579-1.375 5.945-1.375v-1c-2.497 0-4.65.493-6.438 1.505l.493.87zm5.445-1.875v6.912h1v-6.912h-1zm.55 6.414a9.23 9.23 0 00-.914-.05v1c.236 0 .507.015.815.045l.099-.994zm-.852-.046a7.058 7.058 0 00-.878-.052v1c.27 0 .521.015.754.044l.124-.992zm-.878-.052c-2.15 0-3.943.625-5.331 1.909l.679.734c1.172-1.084 2.707-1.643 4.652-1.643v-1zm-5.331 1.909c-1.389 1.282-2.033 3.251-2.033 5.791h1c0-2.388.605-4.035 1.712-5.057l-.679-.734zm-2.033 5.791V83h1V70.808h-1zm.5 11.692h-7.488v1h7.488v-1zm19.263-1.42l-.339.367.004.004.335-.371zm-2.544-29.616v-.5h-.5v.5h.5zm7.488 0h.5v-.5h-.5v.5zm.864 25.104l-.363.344.01.01.353-.354zm5.376-.096l.468-.178-.24-.628-.532.41.304.396zm2.016 5.28l.289.408.317-.224-.138-.362-.468.178zM196.707 83l.118.486.01-.003-.128-.483zm-16.944-19.488h-.5v.5h.5v-.5zm0-5.76v-.5h-.5v.5h.5zm17.904 0h.5v-.5h-.5v.5zm0 5.76v.5h.5v-.5h-.5zm-4.272 19.372c-2.957 0-5.191-.746-6.768-2.175l-.671.742c1.814 1.643 4.317 2.433 7.439 2.433v-1zm-6.764-2.171c-1.563-1.445-2.384-3.612-2.384-6.593h-1c0 3.163.876 5.636 2.705 7.327l.679-.734zm-2.384-6.593V51.464h-1V74.12h1zm-.5-22.156h7.488v-1h-7.488v1zm6.988-.5v22.56h1v-22.56h-1zm0 22.56c0 1.176.314 2.162 1.001 2.888l.726-.688c-.464-.49-.727-1.2-.727-2.2h-1zm1.011 2.898c.689.689 1.612 1.01 2.705 1.01v-1c-.89 0-1.536-.255-1.998-.718l-.707.708zm2.705 1.01c1.28 0 2.399-.348 3.329-1.064l-.609-.792c-.734.564-1.631.856-2.72.856v1zm2.557-1.282l2.016 5.28.935-.356-2.016-5.28-.935.356zm2.194 4.694c-.71.503-1.581.897-2.623 1.173l.256.966c1.135-.3 2.12-.738 2.945-1.323l-.578-.816zm-2.612 1.17c-1.016.246-2.08.37-3.195.37v1c1.19 0 2.333-.132 3.43-.398l-.235-.972zm-16.327-19.002v-5.76h-1v5.76h1zm-.5-5.26h17.904v-1h-17.904v1zm17.404-.5v5.76h1v-5.76h-1zm.5 5.26h-17.904v1h17.904v-1zM205.615 83h-.5v.5h.5V83zm0-25.824v-.5h-.5v.5h.5zm7.488 0h.5v-.5h-.5v.5zm0 25.824v.5h.5V83h-.5zm-7.104-30.624l-.34.367.34-.367zm0-5.952l.339.367-.339-.367zm6.72-.048l-.332.374.008.007.324-.381zm0 6l.346.36h.001l-.347-.36zM206.115 83V57.176h-1V83h1zm-.5-25.324h7.488v-1h-7.488v1zm6.988-.5V83h1V57.176h-1zm.5 25.324h-7.488v1h7.488v-1zm-3.744-29.424c-1.273 0-2.264-.367-3.021-1.067l-.679.734c.972.9 2.22 1.333 3.7 1.333v-1zm-3.021-1.067c-.761-.705-1.135-1.563-1.135-2.609h-1c0 1.322.489 2.448 1.456 3.343l.679-.734zm-1.135-2.609c0-1.046.374-1.904 1.135-2.61l-.679-.733c-.967.895-1.456 2.02-1.456 3.343h1zm1.135-2.61c.757-.7 1.748-1.066 3.021-1.066v-1c-1.48 0-2.728.433-3.7 1.333l.679.734zm3.021-1.066c1.278 0 2.272.354 3.028 1.026l.664-.748c-.972-.864-2.218-1.278-3.692-1.278v1zm3.036 1.033c.747.636 1.12 1.454 1.12 2.499h1c0-1.323-.491-2.425-1.472-3.26l-.648.76zm1.12 2.499c0 1.118-.381 2.026-1.143 2.76l.694.72c.966-.93 1.449-2.102 1.449-3.48h-1zm-1.143 2.76c-.719.691-1.704 1.06-3.013 1.06v1c1.507 0 2.762-.431 3.706-1.34l-.693-.72zm14.544 29.64l-.239.439.003.001.236-.44zm-5.04-4.704l-.428.258.005.008.423-.266zm0-13.728l-.425-.263-.001.002.426.261zm5.04-4.704l.235.442.002-.002-.237-.44zm14.64 0l-.236.44.005.003.231-.443zm5.04 18.432l.427.261.001-.003-.428-.258zm-5.04 4.704l-.236-.44.236.44zm-3.936-5.28l.251.432-.251-.432zm2.352-2.448l.439.24.003-.006-.442-.234zm0-7.68l-.439.24.439-.24zM237.62 63.8l-.251.432.251-.432zm-6.72 0l.251.432-.251-.432zm-2.4 2.448l-.433-.25-.006.01.439.24zm0 7.68l-.442.234.005.008.004.007.433-.249zm2.4 2.448l.251-.432-.251.432zm3.36 6.508c-2.68 0-5.045-.56-7.107-1.668l-.473.88c2.225 1.196 4.757 1.788 7.58 1.788v-1zm-7.104-1.667c-2.039-1.112-3.655-2.621-4.856-4.531l-.847.532c1.295 2.058 3.039 3.685 5.224 4.877l.479-.878zm-4.852-4.523c-1.164-1.932-1.752-4.129-1.752-6.606h-1c0 2.643.629 5.022 1.896 7.122l.856-.516zm-1.752-6.606c0-2.51.588-4.706 1.751-6.603l-.853-.522c-1.27 2.071-1.898 4.452-1.898 7.125h1zm1.749-6.6a12.462 12.462 0 014.85-4.526l-.469-.884a13.46 13.46 0 00-5.231 4.883l.85.526zm4.852-4.528c2.062-1.108 4.427-1.668 7.107-1.668v-1c-2.823 0-5.355.592-7.58 1.788l.473.88zm7.107-1.668c2.648 0 4.997.56 7.06 1.668l.473-.88c-2.225-1.196-4.74-1.788-7.533-1.788v1zm7.065 1.671c2.067 1.08 3.678 2.57 4.845 4.474l.853-.522c-1.266-2.065-3.014-3.678-5.235-4.838l-.463.886zm4.845 4.474c1.162 1.896 1.75 4.107 1.75 6.651h1c0-2.704-.627-5.101-1.897-7.173l-.853.522zm1.75 6.651c0 2.477-.587 4.674-1.752 6.606l.856.516c1.268-2.1 1.896-4.48 1.896-7.122h-1zm-1.75 6.603c-1.168 1.905-2.781 3.412-4.85 4.525l.473.88c2.218-1.191 3.965-2.82 5.23-4.883l-.853-.522zm-4.85 4.525c-2.063 1.108-4.412 1.668-7.06 1.668v1c2.793 0 5.308-.592 7.533-1.788l-.473-.88zm-7.06-3.476c1.328 0 2.536-.307 3.611-.932l-.502-.864c-.909.528-1.941.796-3.109.796v1zm3.611-.932c1.075-.624 1.923-1.508 2.54-2.64l-.878-.48c-.534.98-1.255 1.728-2.164 2.256l.502.864zm2.543-2.646c.621-1.173.922-2.536.922-4.074h-1c0 1.406-.275 2.603-.806 3.606l.884.468zm.922-4.074c0-1.567-.3-2.934-.925-4.08l-.878.48c.527.966.803 2.16.803 3.6h1zm-.925-4.08c-.617-1.132-1.465-2.016-2.54-2.64l-.502.864c.909.528 1.63 1.276 2.164 2.255l.878-.478zm-2.54-2.64c-1.075-.625-2.283-.932-3.611-.932v1c1.168 0 2.2.269 3.109.796l.502-.864zm-3.611-.932c-1.328 0-2.536.307-3.611.932l.502.864c.909-.527 1.941-.796 3.109-.796v-1zm-3.611.932c-1.072.622-1.933 1.503-2.582 2.63l.867.5c.567-.986 1.306-1.736 2.217-2.266l-.502-.864zm-2.588 2.64c-.625 1.146-.925 2.513-.925 4.08h1c0-1.44.276-2.634.803-3.6l-.878-.48zm-.925 4.08c0 1.538.301 2.901.922 4.074l.884-.468c-.531-1.003-.806-2.2-.806-3.606h-1zm.931 4.09c.649 1.127 1.51 2.008 2.582 2.63l.502-.864c-.911-.53-1.65-1.28-2.217-2.266l-.867.5zm2.582 2.63c1.075.624 2.283.932 3.611.932v-1c-1.168 0-2.2-.268-3.109-.796l-.502.864zm45.864-18.768l-.23.444.01.005.22-.449zm3.84 3.744l-.438.24.002.004.436-.244zM281.745 83v.5h.5V83h-.5zm-7.488 0h-.5v.5h.5V83zm-1.392-18.24l-.371.335.006.007.365-.342zm-7.056-.72l.23.444.006-.003-.236-.441zm-2.208 2.256l-.441-.235-.006.011.447.224zM262.833 83v.5h.5V83h-.5zm-7.488 0h-.5v.5h.5V83zm0-25.824v-.5h-.5v.5h.5zm7.152 0h.5v-.5h-.5v.5zm0 7.152l-.424.264.924 1.486v-1.75h-.5zm-1.344-2.16l-.44-.237-.137.255.153.246.424-.264zm3.984-3.984l.237.44-.237-.44zm5.904-.892c1.979 0 3.722.401 5.242 1.192l.461-.888c-1.68-.873-3.585-1.304-5.703-1.304v1zm5.252 1.197c1.534.752 2.74 1.923 3.622 3.535l.877-.48c-.974-1.78-2.328-3.105-4.059-3.953l-.44.898zm3.624 3.539c.873 1.566 1.328 3.619 1.328 6.188h1c0-2.679-.473-4.914-1.455-6.675l-.873.487zm1.328 6.188V83h1V68.216h-1zm.5 14.284h-7.488v1h7.488v-1zm-6.988.5V69.368h-1V83h1zm0-13.632c0-2.141-.476-3.826-1.526-4.95l-.731.684c.805.86 1.257 2.248 1.257 4.266h1zm-1.521-4.943c-1.013-1.122-2.442-1.653-4.211-1.653v1c1.56 0 2.691.46 3.469 1.323l.742-.67zm-4.211-1.653c-1.258 0-2.412.273-3.451.827l.471.882c.881-.47 1.871-.709 2.98-.709v-1zm-3.445.824c-1.028.532-1.834 1.362-2.42 2.465l.883.47c.502-.945 1.168-1.619 1.996-2.047l-.459-.888zm-2.426 2.476c-.558 1.116-.821 2.511-.821 4.16h1c0-1.551.249-2.78.716-3.712l-.895-.448zm-.821 4.16V83h1V70.232h-1zm.5 12.268h-7.488v1h7.488v-1zm-6.988.5V57.176h-1V83h1zm-.5-25.324h7.152v-1h-7.152v1zm6.652-.5v7.152h1v-7.152h-1zm.925 6.888l-1.344-2.16-.849.528 1.344 2.16.849-.528zm-1.328-1.66a9.064 9.064 0 013.78-3.78l-.473-.88a10.06 10.06 0 00-4.188 4.187l.881.474zm3.78-3.78c1.646-.884 3.531-1.332 5.667-1.332v-1c-2.28 0-4.331.48-6.14 1.451l.473.881zm27.383 23.992l-.13.483.009.002.121-.485zm-4.8-2.016l-.454-.21-.179.386.353.238.28-.414zm2.496-5.376l.264-.425-.48-.298-.238.512.454.211zm4.176 1.824l-.144.479.012.003.132-.482zm8.448.048l-.246-.435-.008.004.254.431zm.24-3.072l-.254.431.015.009.015.007.224-.447zm-2.208-.72l-.085.493.085-.493zm-3.072-.48l-.073.495h.002l.071-.495zm-3.312-.624l-.125.484.014.003.111-.487zm-3.072-1.248l.253-.431-.253.431zm-2.256-2.208l-.432.253.007.01.425-.263zm.576-7.92l-.396-.305-.005.007.401.298zm4.128-2.928l.183.465.007-.002-.19-.463zm11.808-.528l.103-.49-.103.49zm4.56 1.68l.453.212.19-.407-.384-.233-.259.428zm-2.496 5.328l-.254.43.473.28.234-.498-.453-.212zm-3.792-1.488l-.113.487.008.002.007.001.098-.49zm-7.296.24l-.252-.432.252.432zm-.336 3.168l-.254.431.011.006.243-.437zm5.28 1.296l-.073.495h.008l.008.002.057-.497zm3.36.624l.124-.484-.124.484zm3.024 1.248l-.26.427.009.006.009.005.242-.438zm2.256 2.16l-.425.264.004.006.421-.27zm-.576 7.824l.392.31.004-.005-.396-.305zm-4.176 2.88l-.18-.466h-.003l.183.466zm-6.576.556c-2.169 0-4.256-.251-6.263-.753l-.242.97c2.089.522 4.258.783 6.505.783v-1zm-6.254-.75c-1.985-.536-3.528-1.19-4.65-1.948l-.56.828c1.246.842 2.903 1.532 4.95 2.085l.26-.966zm-4.477-1.323l2.496-5.376-.907-.422-2.496 5.376.907.422zm1.779-5.162c1.228.763 2.662 1.388 4.296 1.878l.288-.958c-1.566-.47-2.916-1.061-4.056-1.77l-.528.85zm4.308 1.881c1.671.46 3.316.69 4.932.69v-1c-1.52 0-3.075-.217-4.668-.654l-.264.964zm4.932.69c1.738 0 3.074-.204 3.902-.694l-.508-.86c-.58.342-1.676.554-3.394.554v1zm3.894-.689c.865-.489 1.358-1.217 1.358-2.163h-1c0 .526-.243.95-.85 1.293l.492.87zm1.358-2.163c0-.386-.093-.747-.295-1.062a2.092 2.092 0 00-.845-.73l-.448.895c.225.112.365.241.451.375.085.133.137.3.137.522h1zm-1.111-1.775c-.615-.362-1.415-.616-2.376-.782l-.17.986c.895.154 1.566.38 2.039.658l.507-.862zm-2.376-.782c-.934-.16-1.963-.321-3.086-.482l-.142.99c1.116.16 2.136.319 3.058.478l.17-.986zm-3.084-.482a42.32 42.32 0 01-3.274-.616l-.222.974c1.132.26 2.249.47 3.35.632l.146-.99zm-3.261-.613a11.395 11.395 0 01-2.943-1.195l-.506.862a12.4 12.4 0 003.2 1.301l.249-.968zm-2.943-1.195a5.976 5.976 0 01-2.084-2.04l-.85.527a6.977 6.977 0 002.428 2.375l.506-.862zm-2.078-2.03c-.485-.828-.747-1.933-.747-3.347h-1c0 1.53.282 2.825.885 3.853l.862-.506zm-.747-3.347c0-1.53.433-2.864 1.293-4.022l-.802-.596c-.996 1.338-1.491 2.884-1.491 4.618h1zm1.288-4.015c.894-1.162 2.188-2.09 3.915-2.768l-.366-.93c-1.858.73-3.315 1.754-4.341 3.088l.792.61zm3.922-2.77c1.717-.706 3.793-1.067 6.242-1.067v-1c-2.543 0-4.755.375-6.622 1.142l.38.925zm6.242-1.067c1.723 0 3.481.188 5.273.565l.206-.978a26.548 26.548 0 00-5.479-.587v1zm5.273.565c1.785.376 3.249.92 4.404 1.619l.518-.856c-1.277-.772-2.853-1.35-4.716-1.741l-.206.978zm4.21.979l-2.496 5.328.906.424 2.496-5.328-.906-.424zm-1.789 5.11c-1.291-.762-2.607-1.28-3.948-1.548l-.196.98c1.219.244 2.431.718 3.636 1.429l.508-.862zm-3.934-1.545a16.695 16.695 0 00-3.76-.445v1c1.143 0 2.321.139 3.535.42l.225-.975zm-3.76-.445c-1.688 0-3.014.223-3.9.74l.504.864c.65-.38 1.755-.604 3.396-.604v-1zm-3.9.74c-.875.51-1.4 1.23-1.4 2.16h1c0-.478.243-.91.904-1.296l-.504-.864zm-1.4 2.16c0 .814.363 1.46 1.062 1.871l.507-.862c-.388-.229-.569-.543-.569-1.009h-1zm1.073 1.877c.635.353 1.44.623 2.398.82l.202-.979c-.898-.186-1.597-.428-2.114-.715l-.486.874zm2.398.82c.938.195 1.956.373 3.052.534l.146-.99a52.669 52.669 0 01-2.996-.523l-.202.98zm3.068.536a24.25 24.25 0 013.292.611l.249-.968a25.273 25.273 0 00-3.427-.637l-.114.994zm3.292.611c1.078.277 2.039.675 2.889 1.191l.519-.854a11.623 11.623 0 00-3.159-1.305l-.249.968zm2.907 1.202a5.576 5.576 0 012.073 1.986l.85-.528a6.58 6.58 0 00-2.44-2.334l-.483.876zm2.077 1.992c.508.79.785 1.87.785 3.282h1c0-1.533-.299-2.82-.943-3.822l-.842.54zm.785 3.282c0 1.492-.445 2.808-1.336 3.967l.792.61c1.029-1.337 1.544-2.869 1.544-4.577h-1zm-1.333 3.962c-.891 1.13-2.201 2.043-3.963 2.724l.36.933c1.886-.728 3.36-1.735 4.388-3.037l-.785-.62zm-3.966 2.725c-1.717.674-3.843 1.021-6.393 1.021v1c2.634 0 4.892-.357 6.759-1.09l-.366-.931z" fill="#fff"/></svg><svg fill="none" viewBox="0 0 9 9" id="plus" xmlns="http://www.w3.org/2000/svg"><path fill="#3A3E4B" d="M0 4h9v1H0z"/><path fill="#3A3E4B" d="M4 0h1v9H4z"/></svg><svg fill="none" viewBox="0 0 12 16" id="project-info-1" xmlns="http://www.w3.org/2000/svg"><path d="M6.212.003C2.802-.107 0 2.495 0 5.72c0 3.66 3.687 6.315 5.753 10.134a.29.29 0 00.503 0c1.87-3.436 5.064-5.74 5.656-9.051.613-3.426-2.054-6.683-5.7-6.8zm-.208 8.713c-1.737 0-3.145-1.342-3.145-2.996 0-1.655 1.408-2.996 3.145-2.996S9.15 4.065 9.15 5.72c0 1.654-1.408 2.996-3.145 2.996z" fill="#fff"/></svg><svg fill="none" viewBox="0 0 16 16" id="project-info-2" xmlns="http://www.w3.org/2000/svg"><g fill="#fff"><path d="M11.983 3.377c.622 0 1.126-.494 1.126-1.108V1.11C13.109.496 12.605 0 11.983 0c-.623 0-1.126.494-1.126 1.11v1.16c.001.613.504 1.107 1.126 1.107z"/><path d="M15.983 1.92h-2.267v.564c0 .931-.767 1.69-1.714 1.69a1.702 1.702 0 01-1.713-1.69V1.92H5.716v.564c0 .931-.77 1.69-1.715 1.69-.946 0-1.714-.758-1.714-1.69V1.92L0 1.892V16h14.858L16 15.997 15.983 1.92zm-1.126 12.956H1.144V5.863h13.714v9.013h-.001z"/><path d="M3.984 3.377c.622 0 1.127-.494 1.127-1.108V1.11C5.11.495 4.606 0 3.984 0S2.86.494 2.86 1.11v1.16c0 .613.503 1.107 1.125 1.107zM7.52 7.073H5.719V8.64h1.8V7.073zM10.434 7.073H8.63V8.64h1.803V7.073zM13.131 7.073h-1.8V8.64h1.8V7.073zM7.52 9.675H5.719v1.566h1.8V9.675zM10.434 9.675H8.63v1.566h1.803V9.675zM13.131 9.675h-1.8v1.566h1.8V9.675zM7.52 12.329H5.719v1.566h1.8v-1.566zM4.66 9.675h-1.8v1.566h1.8V9.675zM4.66 12.329h-1.8v1.566h1.8v-1.566zM10.434 12.329H8.63v1.566h1.803v-1.566zM13.131 12.329h-1.8v1.566h1.8v-1.566z"/></g></svg><svg fill="none" viewBox="0 0 16 16" id="project-info-3" xmlns="http://www.w3.org/2000/svg"><g fill="#fff"><path d="M1.084 9.275l7.363-7.227 1.228 1.205-7.363 7.226-1.228-1.204zM0 11.546l1.806-.76L.774 9.772 0 11.546zM11.515 1.446a.84.84 0 000-1.205.901.901 0 00-1.227 0l-.614.602 1.227 1.205.614-.602zM8.854 1.647l.41-.402L10.49 2.45l-.41.401-1.227-1.204zM14.553 4.076H16V1.07L.79 16H16v-1.136h-1.447a.287.287 0 01-.289-.284c0-.156.13-.284.29-.284h1.445v-1.135h-.867a.287.287 0 01-.29-.284c0-.157.13-.284.29-.284h.867v-1.136h-1.446a.287.287 0 01-.289-.284c0-.156.13-.283.29-.283h1.445V9.754h-.867a.287.287 0 01-.29-.284c0-.157.13-.284.29-.284h.867V8.05h-1.446a.287.287 0 01-.289-.283c0-.157.13-.284.29-.284h1.445V6.347h-.867a.287.287 0 01-.29-.284c0-.157.13-.284.29-.284h.867V4.644h-1.446a.287.287 0 01-.289-.284c0-.157.13-.284.29-.284zm-.867 9.369c0 .157-.13.284-.29.284H7.074a.29.29 0 01-.267-.176.28.28 0 01.063-.309l6.322-6.205a.293.293 0 01.315-.062.284.284 0 01.179.262v6.206z"/></g></svg><svg fill="none" viewBox="0 0 16 13" id="quotes" xmlns="http://www.w3.org/2000/svg"><path d="M5.264 6.012A3.1 3.1 0 016.668 7.2c.336.528.504 1.152.504 1.872 0 1.032-.324 1.872-.972 2.52-.648.624-1.476.936-2.484.936s-1.848-.324-2.52-.972C.548 10.908.224 10.08.224 9.072c0-.48.06-.96.18-1.44s.384-1.2.792-2.16L3.284.288h3.564L5.264 6.012zm8.496 0A3.1 3.1 0 0115.164 7.2c.336.528.504 1.152.504 1.872 0 1.032-.324 1.872-.972 2.52-.648.624-1.476.936-2.484.936s-1.848-.324-2.52-.972c-.648-.648-.972-1.476-.972-2.484 0-.48.06-.96.18-1.44s.384-1.2.792-2.16L11.78.288h3.564L13.76 6.012z" fill="#080808"/></svg><svg fill="none" viewBox="0 0 81 26" id="slogan-black" xmlns="http://www.w3.org/2000/svg"><path d="M34.904 22.941h4.003l-.015-.09-.578-.047c-.198 0-.35-.015-.472-.03a.805.805 0 01-.26-.06c-.06-.016-.106-.031-.106-.047-.015-.015-.015-.045-.015-.076l1.918-9.027h1.37c.518.06.899.198 1.112.441.213.244.38.746.502 1.507l.03.183h.061l.229-2.268h-7.49l-.7 2.268h.076l.121-.198c.381-.624.731-1.096 1.036-1.4.304-.305.685-.473 1.126-.533h1.553l-1.888 8.982c-.03.121-.289.213-.791.243l-.777.061-.045.091zm11.363.183c.472 0 1.08-.73 1.827-2.192l-.092-.046-1.142 1.736-.73-.092 1.172-2.923c.533-1.324.807-2.1.807-2.314 0-.243-.107-.456-.305-.67-.198-.213-.38-.32-.563-.32-.365 0-.7.168-1.02.503-.304.305-.715.838-1.248 1.614a22.629 22.629 0 00-1.4 2.344l-.092-.03c.487-1.188 1.218-3.502 2.222-6.912l.29-.974-2.269.259-.03.091 1.218.046c.106 0 .137.122.076.35l-.32 1.127c-.213.76-.502 1.705-.837 2.831-.35 1.142-.655 2.101-.898 2.862l-.868 2.497.761.076.548-1.446c.624-1.34 1.28-2.466 1.949-3.38.67-.913 1.142-1.37 1.4-1.37.168 0 .305.061.427.152a.483.483 0 01.182.38c0 .153-.274.914-.791 2.284-.122.335-.29.746-.503 1.249-.213.502-.365.898-.471 1.187-.122.29-.168.457-.168.503 0 .106.107.228.32.365.213.152.395.213.548.213zm4.068 0c.822 0 1.644-.715 2.466-2.162l-.106-.045c-.365.609-.7 1.035-1.005 1.278-.304.26-.654.381-1.02.381-.396 0-.7-.167-.913-.502-.213-.335-.32-.777-.32-1.325 0-.472.076-.974.244-1.522 1.294-.198 2.253-.457 2.877-.777.609-.304.929-.715.929-1.202 0-.274-.137-.503-.396-.685a1.704 1.704 0 00-.974-.274c-.549 0-1.097.243-1.645.7-.548.472-.99 1.08-1.324 1.812a5.103 5.103 0 00-.518 2.222c0 .594.152 1.096.457 1.492.304.411.715.61 1.248.61zm-.563-4.05l-.03-.015c.304-.898.685-1.583 1.172-2.07.396-.365.73-.563 1.035-.563.228 0 .411.076.548.228a.862.862 0 01.198.548c0 .518-.213.913-.624 1.188-.411.274-1.172.502-2.299.685zm5.982 3.867h6.668l.99-2.633-.107-.015-.106.197c-.442.762-.868 1.34-1.264 1.72-.411.381-.944.58-1.599.58l-2.268-.062 1.888-8.906c.015-.121.274-.197.791-.243l.914-.061.06-.091H57.78l.015.091.366.046c.426.06.67.091.746.106.076.03.106.061.106.107l-1.857 8.753c-.03.122-.29.198-.792.26l-.563.06-.046.091zm12.154.198c.594 0 1.263-.73 1.994-2.207l-.091-.046-1.112 1.736-.685-.076.914-2.908 1.142-3.304-.761-.06-.442 1.46h-.015c0-.913-.29-1.37-.868-1.37-.426 0-.837.214-1.264.64A10.93 10.93 0 0065 19.288c-.517.898-.776 1.72-.776 2.466 0 .411.106.746.35.99.228.243.517.365.852.365.366 0 .731-.213 1.112-.67.38-.442.883-1.203 1.507-2.268h.03c-.426 1.065-.624 1.72-.624 1.964 0 .258.03.487.122.7.091.213.198.304.335.304zm-2.07-.654a.704.704 0 01-.564-.26c-.152-.182-.228-.44-.228-.806 0-.655.167-1.416.533-2.284.35-.867.73-1.507 1.157-1.933.274-.274.548-.41.822-.41.32 0 .578.151.791.425.198.29.305.579.305.868 0 .365-.122.792-.365 1.279-1.036 2.085-1.858 3.12-2.451 3.12zm6.215.64c.487 0 .959-.168 1.385-.534.426-.365.624-.791.624-1.294 0-.259-.091-.533-.243-.822-.153-.274-.503-.685-1.051-1.218-.64-.609-.974-1.126-.974-1.522-.016-.365.091-.67.335-.929.228-.259.548-.396.944-.396.395 0 .746.198 1.035.579-.335.107-.503.304-.503.594 0 .152.03.274.122.365a.459.459 0 00.35.137.459.459 0 00.366-.167c.106-.107.152-.26.152-.442-.015-.365-.152-.654-.411-.868-.274-.213-.64-.32-1.111-.32-.457 0-.899.183-1.294.534-.412.365-.61.776-.594 1.248 0 .243.06.472.182.7.122.244.244.426.366.563.122.153.335.35.609.625 0 .015.06.076.182.198.122.121.183.197.214.228.03.03.09.106.182.213.092.106.168.183.198.243.03.061.076.153.137.244.061.091.092.183.122.274.015.091.03.183.03.274 0 .35-.106.67-.334.96-.229.289-.564.425-1.02.425-.518 0-.975-.228-1.37-.7a.816.816 0 00.365-.243.562.562 0 00.152-.366.496.496 0 00-.487-.502.426.426 0 00-.35.183.663.663 0 00-.153.456c0 .396.168.7.533.929.35.243.792.35 1.31.35zm3.763 0c.472 0 1.066-.732 1.797-2.193l-.092-.046-1.096 1.736-.807-.092 1.69-5.587h1.34l.122-.41-1.325-.016.64-2.07h-.746l-.64 2.07-1.08.015-.138.396 1.081.015-1.674 5.557c-.046.122.06.244.304.396.244.152.457.228.624.228zm3.064.03c.183 0 .335-.061.457-.198a.733.733 0 00.198-.488c0-.167-.06-.32-.183-.456a.633.633 0 00-.456-.198.742.742 0 00-.503.198.624.624 0 00-.198.456c0 .183.061.35.198.488.122.137.29.197.487.197zM3.945 10h1.802l1.307-7.37h4.313l.28-1.51H1.204L.926 2.63h4.326L3.945 10zm7.355 0H13.1l.317-1.776v.025c.368-2.08 1.472-3.438 2.842-3.438 1.23 0 1.611.736 1.281 2.652L17.085 10h1.801l.495-2.753c.482-2.766-.19-3.768-1.98-3.793-1.915 0-3.044 1.129-3.615 2.816h-.101l1.167-5.15h-1.98L11.3 10zm12.65.203c1.598 0 2.347-.152 3.654-.622l.253-1.446c-.774.305-1.484.698-3.032.698-1.674 0-2.436-.419-2.46-1.46h5.898l.19-1.04c.28-1.725-1.04-2.88-3.31-2.88-2.297 0-4.06 1.346-4.416 3.375-.355 2.03.927 3.375 3.223 3.375zm-1.472-3.704c.33-1.206 1.091-1.662 2.423-1.662 1.37 0 1.98.418 1.827 1.56l-4.25.102zM33.062 10h1.801l.672-3.806h6.179l.24-1.408h-6.178l.381-2.157h6.293l.266-1.51h-8.081L33.062 10zm11.79-7.434c.699 0 1.18-.33 1.308-1.028.114-.685-.267-1.015-.952-1.015-.672 0-1.167.33-1.281 1.015-.127.698.24 1.028.926 1.028zM42.659 10h1.801l1.117-6.343h-1.801L42.658 10zm3.633 0h1.802l.393-2.245c.393-1.967 1.611-2.791 4.225-2.791l.253-1.51c-2.372 0-3.476.736-4.173 2.816h-.127l.723-2.613h-1.98L46.292 10zm9.595.203c2.232 0 3.843-.622 4.097-2.093.482-2.766-5.404-1.345-5.176-2.576.076-.444.761-.66 2.258-.66.952 0 2.056.14 2.918.33l.254-1.395c-1.066-.216-2.347-.355-3.108-.355-2.233 0-3.857.685-4.11 2.106-.483 2.753 5.43 1.192 5.2 2.55-.1.533-.811.697-2.372.697-1.116 0-2.03-.14-3.019-.545l-.254 1.446c1.003.305 2.335.495 3.312.495zm6.95-.076c.685 0 1.205-.076 1.763-.254l.165-.951c-1.852.101-1.814-.076-1.548-1.586l.419-2.372h1.827l.24-1.307h-1.839l.317-1.776-1.586.253-.279 1.523h-1.154l-.241 1.307h.913l-.482 2.752c-.317 1.815-.165 2.41 1.485 2.41z" fill="#080808"/></svg><svg fill="none" viewBox="0 0 81 26" id="slogan-white" xmlns="http://www.w3.org/2000/svg"><path d="M34.904 22.941h4.003l-.015-.09-.578-.047c-.198 0-.35-.015-.472-.03a.805.805 0 01-.26-.06c-.06-.016-.106-.031-.106-.047-.015-.015-.015-.045-.015-.076l1.918-9.027h1.37c.518.06.899.198 1.112.441.213.244.38.746.502 1.507l.03.183h.061l.229-2.268h-7.49l-.7 2.268h.076l.121-.198c.381-.624.731-1.096 1.036-1.4.304-.305.685-.473 1.126-.533h1.553l-1.888 8.982c-.03.121-.289.213-.791.243l-.777.061-.045.091zm11.363.183c.472 0 1.08-.73 1.827-2.192l-.092-.046-1.142 1.736-.73-.092 1.172-2.923c.533-1.324.807-2.1.807-2.314 0-.243-.107-.456-.305-.67-.198-.213-.38-.32-.563-.32-.365 0-.7.168-1.02.503-.304.305-.715.838-1.248 1.614a22.629 22.629 0 00-1.4 2.344l-.092-.03c.487-1.188 1.218-3.502 2.222-6.912l.29-.974-2.269.259-.03.091 1.218.046c.106 0 .137.122.076.35l-.32 1.127c-.213.76-.502 1.705-.837 2.831-.35 1.142-.655 2.101-.898 2.862l-.868 2.497.761.076.548-1.446c.624-1.34 1.28-2.466 1.949-3.38.67-.913 1.142-1.37 1.4-1.37.168 0 .305.061.427.152a.483.483 0 01.182.38c0 .153-.274.914-.791 2.284-.122.335-.29.746-.503 1.249-.213.502-.365.898-.471 1.187-.122.29-.168.457-.168.503 0 .106.107.228.32.365.213.152.395.213.548.213zm4.068 0c.822 0 1.644-.715 2.466-2.162l-.106-.045c-.365.609-.7 1.035-1.005 1.278-.304.26-.654.381-1.02.381-.396 0-.7-.167-.913-.502-.213-.335-.32-.777-.32-1.325 0-.472.076-.974.244-1.522 1.294-.198 2.253-.457 2.877-.777.609-.304.929-.715.929-1.202 0-.274-.137-.503-.396-.685a1.704 1.704 0 00-.974-.274c-.549 0-1.097.243-1.645.7-.548.472-.99 1.08-1.324 1.812a5.103 5.103 0 00-.518 2.222c0 .594.152 1.096.457 1.492.304.411.715.61 1.248.61zm-.563-4.05l-.03-.015c.304-.898.685-1.583 1.172-2.07.396-.365.73-.563 1.035-.563.228 0 .411.076.548.228a.862.862 0 01.198.548c0 .518-.213.913-.624 1.188-.411.274-1.172.502-2.299.685zm5.982 3.867h6.668l.99-2.633-.107-.015-.106.197c-.442.762-.868 1.34-1.264 1.72-.411.381-.944.58-1.599.58l-2.268-.062 1.888-8.906c.015-.121.274-.197.791-.243l.914-.061.06-.091H57.78l.015.091.366.046c.426.06.67.091.746.106.076.03.106.061.106.107l-1.857 8.753c-.03.122-.29.198-.792.26l-.563.06-.046.091zm12.154.198c.594 0 1.263-.73 1.994-2.207l-.091-.046-1.112 1.736-.685-.076.914-2.908 1.142-3.304-.761-.06-.442 1.46h-.015c0-.913-.29-1.37-.868-1.37-.426 0-.837.214-1.264.64A10.93 10.93 0 0065 19.288c-.517.898-.776 1.72-.776 2.466 0 .411.106.746.35.99.228.243.517.365.852.365.366 0 .731-.213 1.112-.67.38-.442.883-1.203 1.507-2.268h.03c-.426 1.065-.624 1.72-.624 1.964 0 .258.03.487.122.7.091.213.198.304.335.304zm-2.07-.654a.704.704 0 01-.564-.26c-.152-.182-.228-.44-.228-.806 0-.655.167-1.416.533-2.284.35-.867.73-1.507 1.157-1.933.274-.274.548-.41.822-.41.32 0 .578.151.791.425.198.29.305.579.305.868 0 .365-.122.792-.365 1.279-1.036 2.085-1.858 3.12-2.451 3.12zm6.215.64c.487 0 .959-.168 1.385-.534.426-.365.624-.791.624-1.294 0-.259-.091-.533-.243-.822-.153-.274-.503-.685-1.051-1.218-.64-.609-.974-1.126-.974-1.522-.016-.365.091-.67.335-.929.228-.259.548-.396.944-.396.395 0 .746.198 1.035.579-.335.107-.503.304-.503.594 0 .152.03.274.122.365a.459.459 0 00.35.137.459.459 0 00.366-.167c.106-.107.152-.26.152-.442-.015-.365-.152-.654-.411-.868-.274-.213-.64-.32-1.111-.32-.457 0-.899.183-1.294.534-.412.365-.61.776-.594 1.248 0 .243.06.472.182.7.122.244.244.426.366.563.122.153.335.35.609.625 0 .015.06.076.182.198.122.121.183.197.214.228.03.03.09.106.182.213.092.106.168.183.198.243.03.061.076.153.137.244.061.091.092.183.122.274.015.091.03.183.03.274 0 .35-.106.67-.334.96-.229.289-.564.425-1.02.425-.518 0-.975-.228-1.37-.7a.816.816 0 00.365-.243.562.562 0 00.152-.366.496.496 0 00-.487-.502.426.426 0 00-.35.183.663.663 0 00-.153.456c0 .396.168.7.533.929.35.243.792.35 1.31.35zm3.763 0c.472 0 1.066-.732 1.797-2.193l-.092-.046-1.096 1.736-.807-.092 1.69-5.587h1.34l.122-.41-1.325-.016.64-2.07h-.746l-.64 2.07-1.08.015-.138.396 1.081.015-1.674 5.557c-.046.122.06.244.304.396.244.152.457.228.624.228zm3.064.03c.183 0 .335-.061.457-.198a.733.733 0 00.198-.488c0-.167-.06-.32-.183-.456a.633.633 0 00-.456-.198.742.742 0 00-.503.198.624.624 0 00-.198.456c0 .183.061.35.198.488.122.137.29.197.487.197zM3.945 10h1.802l1.307-7.37h4.313l.28-1.51H1.204L.926 2.63h4.326L3.945 10zm7.355 0H13.1l.317-1.776v.025c.368-2.08 1.472-3.438 2.842-3.438 1.23 0 1.611.736 1.281 2.652L17.085 10h1.801l.495-2.753c.482-2.766-.19-3.768-1.98-3.793-1.915 0-3.044 1.129-3.615 2.816h-.101l1.167-5.15h-1.98L11.3 10zm12.65.203c1.598 0 2.347-.152 3.654-.622l.253-1.446c-.774.305-1.484.698-3.032.698-1.674 0-2.436-.419-2.46-1.46h5.898l.19-1.04c.28-1.725-1.04-2.88-3.31-2.88-2.297 0-4.06 1.346-4.416 3.375-.355 2.03.927 3.375 3.223 3.375zm-1.472-3.704c.33-1.206 1.091-1.662 2.423-1.662 1.37 0 1.98.418 1.827 1.56l-4.25.102zM33.062 10h1.801l.672-3.806h6.179l.24-1.408h-6.178l.381-2.157h6.293l.266-1.51h-8.081L33.062 10zm11.79-7.434c.699 0 1.18-.33 1.308-1.028.114-.685-.267-1.015-.952-1.015-.672 0-1.167.33-1.281 1.015-.127.698.24 1.028.926 1.028zM42.659 10h1.801l1.117-6.343h-1.801L42.658 10zm3.633 0h1.802l.393-2.245c.393-1.967 1.611-2.791 4.225-2.791l.253-1.51c-2.372 0-3.476.736-4.173 2.816h-.127l.723-2.613h-1.98L46.292 10zm9.595.203c2.232 0 3.843-.622 4.097-2.093.482-2.766-5.404-1.345-5.176-2.576.076-.444.761-.66 2.258-.66.952 0 2.056.14 2.918.33l.254-1.395c-1.066-.216-2.347-.355-3.108-.355-2.233 0-3.857.685-4.11 2.106-.483 2.753 5.43 1.192 5.2 2.55-.1.533-.811.697-2.372.697-1.116 0-2.03-.14-3.019-.545l-.254 1.446c1.003.305 2.335.495 3.312.495zm6.95-.076c.685 0 1.205-.076 1.763-.254l.165-.951c-1.852.101-1.814-.076-1.548-1.586l.419-2.372h1.827l.24-1.307h-1.839l.317-1.776-1.586.253-.279 1.523h-1.154l-.241 1.307h.913l-.482 2.752c-.317 1.815-.165 2.41 1.485 2.41z" fill="#fff"/></svg><svg fill="none" viewBox="0 0 25 24" id="twetter-share" xmlns="http://www.w3.org/2000/svg"><rect x=".774" width="24" height="24" rx="12" fill="#38A7DE"/><path fill-rule="evenodd" clip-rule="evenodd" d="M7.742 15.292c.914.61 1.999.966 3.165.966 3.799 0 5.875-3.277 5.875-6.118 0-.093-.002-.185-.006-.277a4.29 4.29 0 001.03-1.113c-.37.171-.768.286-1.185.337.426-.264.753-.687.908-1.188a4.05 4.05 0 01-1.312.52 2.026 2.026 0 00-1.507-.677c-1.14 0-2.065.961-2.065 2.148 0 .17.019.333.054.49-1.716-.089-3.239-.945-4.256-2.245a2.21 2.21 0 00-.28 1.08c0 .746.364 1.405.919 1.79a1.981 1.981 0 01-.936-.269v.027c0 1.041.713 1.911 1.656 2.109a1.97 1.97 0 01-.932.036c.262.855 1.025 1.477 1.929 1.493a4.034 4.034 0 01-3.057.89z" fill="#fff"/></svg><svg fill="none" viewBox="0 0 25 24" id="twitter-white" xmlns="http://www.w3.org/2000/svg"><path fill-rule="evenodd" clip-rule="evenodd" d="M7.742 15.292c.914.61 1.999.966 3.165.966 3.799 0 5.875-3.277 5.875-6.118 0-.093-.002-.185-.006-.277a4.29 4.29 0 001.03-1.113c-.37.171-.768.286-1.185.337.426-.264.753-.687.908-1.188a4.05 4.05 0 01-1.312.52 2.026 2.026 0 00-1.507-.677c-1.14 0-2.065.961-2.065 2.148 0 .17.019.333.054.49-1.716-.089-3.239-.945-4.256-2.245a2.21 2.21 0 00-.28 1.08c0 .746.364 1.405.919 1.79a1.981 1.981 0 01-.936-.269v.027c0 1.041.713 1.911 1.656 2.109a1.97 1.97 0 01-.932.036c.262.855 1.025 1.477 1.929 1.493a4.034 4.034 0 01-3.057.89z" fill="#fff"/><rect x="1.274" y=".5" width="23" height="23" rx="11.5" stroke="#fff" stroke-opacity=".32"/></svg></svg>