<svg width="204" height="173" viewBox="0 0 204 173" fill="none" xmlns="http://www.w3.org/2000/svg">
<path d="M110.988 34.4H117.516V124H110.988V34.4ZM51.084 124H44.556V34.4H51.084V124ZM111.756 81.376H50.316V75.616H111.756V81.376ZM151.366 124V34.4H157.894V124H151.366Z" fill="white"/>
<path d="M40.764 155V132.6H42.396V153.528H55.292V155H40.764ZM67.8028 155V132.6H69.4348V155H67.8028ZM95.1283 155.16C93.4429 155.16 91.8856 154.883 90.4563 154.328C89.0269 153.752 87.7789 152.952 86.7123 151.928C85.6669 150.904 84.8563 149.709 84.2803 148.344C83.7043 146.957 83.4163 145.443 83.4163 143.8C83.4163 142.157 83.7043 140.653 84.2803 139.288C84.8563 137.901 85.6776 136.696 86.7443 135.672C87.8109 134.648 89.0483 133.859 90.4563 133.304C91.8856 132.728 93.4536 132.44 95.1603 132.44C96.7816 132.44 98.2856 132.696 99.6723 133.208C101.059 133.72 102.243 134.488 103.224 135.512L102.2 136.6C101.219 135.64 100.142 134.957 98.9683 134.552C97.8163 134.147 96.5576 133.944 95.1923 133.944C93.7416 133.944 92.3976 134.189 91.1603 134.68C89.9229 135.171 88.8456 135.864 87.9283 136.76C87.0109 137.656 86.2963 138.701 85.7843 139.896C85.2936 141.091 85.0483 142.392 85.0483 143.8C85.0483 145.208 85.2936 146.509 85.7843 147.704C86.2963 148.899 87.0109 149.944 87.9283 150.84C88.8456 151.736 89.9229 152.429 91.1603 152.92C92.3976 153.411 93.7416 153.656 95.1923 153.656C96.5149 153.656 97.7629 153.453 98.9363 153.048C100.131 152.643 101.219 151.971 102.2 151.032L103.128 152.28C102.126 153.24 100.92 153.965 99.5123 154.456C98.1256 154.925 96.6643 155.16 95.1283 155.16ZM101.56 152.12V143.896H103.128V152.28L101.56 152.12ZM135.238 132.6H136.87V155H135.238V132.6ZM120.262 155H118.63V132.6H120.262V155ZM135.43 144.344H120.07V142.904H135.43V144.344ZM157.301 155V134.072H149.237V132.6H166.997V134.072H158.933V155H157.301Z" fill="white"/>
<rect x="14" y="17" width="176" height="145" fill="none" stroke="white" stroke-width="6"/>
</svg>
